<?xml version="1.0" standalone="no"?><svg xmlns:xlink="http://www.w3.org/1999/xlink" xmlns="http://www.w3.org/2000/svg" viewBox="0 0 1000 179.47816091954022" preserveAspectRatio="xMaxYMax slice"><g transform="scale(1.1494252873563218)"><rect x="0" y="0" width="870" height="156.15384615384613" fill="#1f2937"/><g transform="translate(0,0) scale(1.1155) rotate(0)"><path d="M10 0L20 10L10 20L0 10L10 0Z" fill="#283876"/></g><g transform="translate(22.31,0) scale(1.1155) rotate(0)"><path d="M10 0L20 10L10 20L0 10L10 0Z" fill="#2a3b83"/></g><g transform="translate(44.62,0) scale(1.1155) rotate(0)"><path d="M10 0L20 10L10 20L0 10L10 0Z" fill="#4c609c"/></g><g transform="translate(66.92,0) scale(1.1155) rotate(0)"><path d="M10 0L20 10L10 20L0 10L10 0Z" fill="#2c4b93"/></g><g transform="translate(89.23,0) scale(1.1155) rotate(0)"><path d="M10 0L20 10L10 20L0 10L10 0Z" fill="#3b4b75"/></g><g transform="translate(111.54,0) scale(1.1155) rotate(0)"><path d="M10 0L20 10L10 20L0 10L10 0Z" fill="#26356b"/></g><g transform="translate(133.85,0) scale(1.1155) rotate(0)"><path d="M10 0L20 10L10 20L0 10L10 0Z" fill="#344366"/></g><g transform="translate(156.15,0) scale(1.1155) rotate(0)"><path d="M10 0L20 10L10 20L0 10L10 0Z" fill="#2b3c88"/></g><g transform="translate(178.46,0) scale(1.1155) rotate(0)"><path d="M10 0L20 10L10 20L0 10L10 0Z" fill="#2c4a91"/></g><g transform="translate(200.77,0) scale(1.1155) rotate(0)"><path d="M10 0L20 10L10 20L0 10L10 0Z" fill="#7390f4"/></g><g transform="translate(223.08,0) scale(1.1155) rotate(0)"><path d="M10 0L20 10L10 20L0 10L10 0Z" fill="#335cc3"/></g><g transform="translate(245.38,0) scale(1.1155) rotate(0)"><path d="M10 0L20 10L10 20L0 10L10 0Z" fill="#728ff2"/></g><g transform="translate(267.69,0) scale(1.1155) rotate(0)"><path d="M10 0L20 10L10 20L0 10L10 0Z" fill="#202a3d"/></g><g transform="translate(290,0) scale(1.1155) rotate(0)"><path d="M10 0L20 10L10 20L0 10L10 0Z" fill="#263a67"/></g><g transform="translate(312.31,0) scale(1.1155) rotate(0)"><path d="M10 0L20 10L10 20L0 10L10 0Z" fill="#2b4789"/></g><g transform="translate(334.62,0) scale(1.1155) rotate(0)"><path d="M10 0L20 10L10 20L0 10L10 0Z" fill="#284078"/></g><g transform="translate(356.92,0) scale(1.1155) rotate(0)"><path d="M10 0L20 10L10 20L0 10L10 0Z" fill="#273770"/></g><g transform="translate(379.23,0) scale(1.1155) rotate(0)"><path d="M10 0L20 10L10 20L0 10L10 0Z" fill="#3766de"/></g><g transform="translate(401.54,0) scale(1.1155) rotate(0)"><path d="M10 0L20 10L10 20L0 10L10 0Z" fill="#5267a9"/></g><g transform="translate(423.85,0) scale(1.1155) rotate(0)"><path d="M10 0L20 10L10 20L0 10L10 0Z" fill="#415282"/></g><g transform="translate(446.15,0) scale(1.1155) rotate(0)"><path d="M10 0L20 10L10 20L0 10L10 0Z" fill="#7491f6"/></g><g transform="translate(468.46,0) scale(1.1155) rotate(0)"><path d="M10 0L20 10L10 20L0 10L10 0Z" fill="#222e4d"/></g><g transform="translate(490.77,0) scale(1.1155) rotate(0)"><path d="M10 0L20 10L10 20L0 10L10 0Z" fill="#27376f"/></g><g transform="translate(513.08,0) scale(1.1155) rotate(0)"><path d="M10 0L20 10L10 20L0 10L10 0Z" fill="#3766de"/></g><g transform="translate(535.38,0) scale(1.1155) rotate(0)"><path d="M10 0L20 10L10 20L0 10L10 0Z" fill="#293a7e"/></g><g transform="translate(557.69,0) scale(1.1155) rotate(0)"><path d="M10 0L20 10L10 20L0 10L10 0Z" fill="#3d4d7a"/></g><g transform="translate(580,0) scale(1.1155) rotate(0)"><path d="M10 0L20 10L10 20L0 10L10 0Z" fill="#293a7d"/></g><g transform="translate(602.31,0) scale(1.1155) rotate(0)"><path d="M10 0L20 10L10 20L0 10L10 0Z" fill="#335cc3"/></g><g transform="translate(624.62,0) scale(1.1155) rotate(0)"><path d="M10 0L20 10L10 20L0 10L10 0Z" fill="#233454"/></g><g transform="translate(646.92,0) scale(1.1155) rotate(0)"><path d="M10 0L20 10L10 20L0 10L10 0Z" fill="#293a80"/></g><g transform="translate(669.23,0) scale(1.1155) rotate(0)"><path d="M10 0L20 10L10 20L0 10L10 0Z" fill="#2d4d9a"/></g><g transform="translate(691.54,0) scale(1.1155) rotate(0)"><path d="M10 0L20 10L10 20L0 10L10 0Z" fill="#2f53aa"/></g><g transform="translate(713.85,0) scale(1.1155) rotate(0)"><path d="M10 0L20 10L10 20L0 10L10 0Z" fill="#425487"/></g><g transform="translate(736.15,0) scale(1.1155) rotate(0)"><path d="M10 0L20 10L10 20L0 10L10 0Z" fill="#202a3d"/></g><g transform="translate(758.46,0) scale(1.1155) rotate(0)"><path d="M10 0L20 10L10 20L0 10L10 0Z" fill="#29427d"/></g><g transform="translate(780.77,0) scale(1.1155) rotate(0)"><path d="M10 0L20 10L10 20L0 10L10 0Z" fill="#354468"/></g><g transform="translate(803.08,0) scale(1.1155) rotate(0)"><path d="M10 0L20 10L10 20L0 10L10 0Z" fill="#3a4a73"/></g><g transform="translate(825.38,0) scale(1.1155) rotate(0)"><path d="M10 0L20 10L10 20L0 10L10 0Z" fill="#233055"/></g><g transform="translate(847.69,0) scale(1.1155) rotate(0)"><path d="M10 0L20 10L10 20L0 10L10 0Z" fill="#718eef"/></g><g transform="translate(0,22.31) scale(1.1155) rotate(0)"><path d="M10 0L20 10L10 20L0 10L10 0Z" fill="#2b3d8a"/></g><g transform="translate(22.31,22.31) scale(1.1155) rotate(0)"><path d="M10 0L20 10L10 20L0 10L10 0Z" fill="#3147b2"/></g><g transform="translate(44.62,22.31) scale(1.1155) rotate(0)"><path d="M10 0L20 10L10 20L0 10L10 0Z" fill="#2f44a8"/></g><g transform="translate(66.92,22.31) scale(1.1155) rotate(0)"><path d="M10 0L20 10L10 20L0 10L10 0Z" fill="#345ec8"/></g><g transform="translate(89.23,22.31) scale(1.1155) rotate(0)"><path d="M10 0L20 10L10 20L0 10L10 0Z" fill="#263a65"/></g><g transform="translate(111.54,22.31) scale(1.1155) rotate(0)"><path d="M10 0L20 10L10 20L0 10L10 0Z" fill="#2d4096"/></g><g transform="translate(133.85,22.31) scale(1.1155) rotate(0)"><path d="M10 0L20 10L10 20L0 10L10 0Z" fill="#29427b"/></g><g transform="translate(156.15,22.31) scale(1.1155) rotate(0)"><path d="M10 0L20 10L10 20L0 10L10 0Z" fill="#2b3d89"/></g><g transform="translate(178.46,22.31) scale(1.1155) rotate(0)"><path d="M10 0L20 10L10 20L0 10L10 0Z" fill="#212f46"/></g><g transform="translate(200.77,22.31) scale(1.1155) rotate(0)"><path d="M10 0L20 10L10 20L0 10L10 0Z" fill="#233353"/></g><g transform="translate(223.08,22.31) scale(1.1155) rotate(0)"><path d="M10 0L20 10L10 20L0 10L10 0Z" fill="#202d41"/></g><g transform="translate(245.38,22.31) scale(1.1155) rotate(0)"><path d="M10 0L20 10L10 20L0 10L10 0Z" fill="#344265"/></g><g transform="translate(267.69,22.31) scale(1.1155) rotate(0)"><path d="M10 0L20 10L10 20L0 10L10 0Z" fill="#2c3e8f"/></g><g transform="translate(290,22.31) scale(1.1155) rotate(0)"><path d="M10 0L20 10L10 20L0 10L10 0Z" fill="#2a3b81"/></g><g transform="translate(312.31,22.31) scale(1.1155) rotate(0)"><path d="M10 0L20 10L10 20L0 10L10 0Z" fill="#5d75c3"/></g><g transform="translate(334.62,22.31) scale(1.1155) rotate(0)"><path d="M10 0L20 10L10 20L0 10L10 0Z" fill="#212d48"/></g><g transform="translate(356.92,22.31) scale(1.1155) rotate(0)"><path d="M10 0L20 10L10 20L0 10L10 0Z" fill="#313f60"/></g><g transform="translate(379.23,22.31) scale(1.1155) rotate(0)"><path d="M10 0L20 10L10 20L0 10L10 0Z" fill="#7390f4"/></g><g transform="translate(401.54,22.31) scale(1.1155) rotate(0)"><path d="M10 0L20 10L10 20L0 10L10 0Z" fill="#293a7d"/></g><g transform="translate(423.85,22.31) scale(1.1155) rotate(0)"><path d="M10 0L20 10L10 20L0 10L10 0Z" fill="#2b3c88"/></g><g transform="translate(446.15,22.31) scale(1.1155) rotate(0)"><path d="M10 0L20 10L10 20L0 10L10 0Z" fill="#2d4096"/></g><g transform="translate(468.46,22.31) scale(1.1155) rotate(0)"><path d="M10 0L20 10L10 20L0 10L10 0Z" fill="#344366"/></g><g transform="translate(490.77,22.31) scale(1.1155) rotate(0)"><path d="M10 0L20 10L10 20L0 10L10 0Z" fill="#2f44a8"/></g><g transform="translate(513.08,22.31) scale(1.1155) rotate(0)"><path d="M10 0L20 10L10 20L0 10L10 0Z" fill="#29437f"/></g><g transform="translate(535.38,22.31) scale(1.1155) rotate(0)"><path d="M10 0L20 10L10 20L0 10L10 0Z" fill="#5369ac"/></g><g transform="translate(557.69,22.31) scale(1.1155) rotate(0)"><path d="M10 0L20 10L10 20L0 10L10 0Z" fill="#36466c"/></g><g transform="translate(580,22.31) scale(1.1155) rotate(0)"><path d="M10 0L20 10L10 20L0 10L10 0Z" fill="#202a3c"/></g><g transform="translate(602.31,22.31) scale(1.1155) rotate(0)"><path d="M10 0L20 10L10 20L0 10L10 0Z" fill="#394971"/></g><g transform="translate(624.62,22.31) scale(1.1155) rotate(0)"><path d="M10 0L20 10L10 20L0 10L10 0Z" fill="#284178"/></g><g transform="translate(646.92,22.31) scale(1.1155) rotate(0)"><path d="M10 0L20 10L10 20L0 10L10 0Z" fill="#284178"/></g><g transform="translate(669.23,22.31) scale(1.1155) rotate(0)"><path d="M10 0L20 10L10 20L0 10L10 0Z" fill="#212b3b"/></g><g transform="translate(691.54,22.31) scale(1.1155) rotate(0)"><path d="M10 0L20 10L10 20L0 10L10 0Z" fill="#242f42"/></g><g transform="translate(713.85,22.31) scale(1.1155) rotate(0)"><path d="M10 0L20 10L10 20L0 10L10 0Z" fill="#2b3d89"/></g><g transform="translate(736.15,22.31) scale(1.1155) rotate(0)"><path d="M10 0L20 10L10 20L0 10L10 0Z" fill="#556bb0"/></g><g transform="translate(758.46,22.31) scale(1.1155) rotate(0)"><path d="M10 0L20 10L10 20L0 10L10 0Z" fill="#6f8beb"/></g><g transform="translate(780.77,22.31) scale(1.1155) rotate(0)"><path d="M10 0L20 10L10 20L0 10L10 0Z" fill="#2f44a9"/></g><g transform="translate(803.08,22.31) scale(1.1155) rotate(0)"><path d="M10 0L20 10L10 20L0 10L10 0Z" fill="#5a71bc"/></g><g transform="translate(825.38,22.31) scale(1.1155) rotate(0)"><path d="M10 0L20 10L10 20L0 10L10 0Z" fill="#233055"/></g><g transform="translate(847.69,22.31) scale(1.1155) rotate(0)"><path d="M10 0L20 10L10 20L0 10L10 0Z" fill="#202a3c"/></g><g transform="translate(0,44.62) scale(1.1155) rotate(0)"><path d="M10 0L20 10L10 20L0 10L10 0Z" fill="#2d4c96"/></g><g transform="translate(22.31,44.62) scale(1.1155) rotate(0)"><path d="M10 0L20 10L10 20L0 10L10 0Z" fill="#5c74c1"/></g><g transform="translate(44.62,44.62) scale(1.1155) rotate(0)"><path d="M10 0L20 10L10 20L0 10L10 0Z" fill="#232e40"/></g><g transform="translate(66.92,44.62) scale(1.1155) rotate(0)"><path d="M10 0L20 10L10 20L0 10L10 0Z" fill="#2a3b81"/></g><g transform="translate(89.23,44.62) scale(1.1155) rotate(0)"><path d="M10 0L20 10L10 20L0 10L10 0Z" fill="#37476d"/></g><g transform="translate(111.54,44.62) scale(1.1155) rotate(0)"><path d="M10 0L20 10L10 20L0 10L10 0Z" fill="#335dc7"/></g><g transform="translate(133.85,44.62) scale(1.1155) rotate(0)"><path d="M10 0L20 10L10 20L0 10L10 0Z" fill="#4b5f9a"/></g><g transform="translate(156.15,44.62) scale(1.1155) rotate(0)"><path d="M10 0L20 10L10 20L0 10L10 0Z" fill="#335cc3"/></g><g transform="translate(178.46,44.62) scale(1.1155) rotate(0)"><path d="M10 0L20 10L10 20L0 10L10 0Z" fill="#576db4"/></g><g transform="translate(200.77,44.62) scale(1.1155) rotate(0)"><path d="M10 0L20 10L10 20L0 10L10 0Z" fill="#2b488c"/></g><g transform="translate(223.08,44.62) scale(1.1155) rotate(0)"><path d="M10 0L20 10L10 20L0 10L10 0Z" fill="#6782da"/></g><g transform="translate(245.38,44.62) scale(1.1155) rotate(0)"><path d="M10 0L20 10L10 20L0 10L10 0Z" fill="#2a3b80"/></g><g transform="translate(267.69,44.62) scale(1.1155) rotate(0)"><path d="M10 0L20 10L10 20L0 10L10 0Z" fill="#3767e2"/></g><g transform="translate(290,44.62) scale(1.1155) rotate(0)"><path d="M10 0L20 10L10 20L0 10L10 0Z" fill="#394972"/></g><g transform="translate(312.31,44.62) scale(1.1155) rotate(0)"><path d="M10 0L20 10L10 20L0 10L10 0Z" fill="#253860"/></g><g transform="translate(334.62,44.62) scale(1.1155) rotate(0)"><path d="M10 0L20 10L10 20L0 10L10 0Z" fill="#637cd0"/></g><g transform="translate(356.92,44.62) scale(1.1155) rotate(0)"><path d="M10 0L20 10L10 20L0 10L10 0Z" fill="#2a3c85"/></g><g transform="translate(379.23,44.62) scale(1.1155) rotate(0)"><path d="M10 0L20 10L10 20L0 10L10 0Z" fill="#2f44a7"/></g><g transform="translate(401.54,44.62) scale(1.1155) rotate(0)"><path d="M10 0L20 10L10 20L0 10L10 0Z" fill="#283875"/></g><g transform="translate(423.85,44.62) scale(1.1155) rotate(0)"><path d="M10 0L20 10L10 20L0 10L10 0Z" fill="#2a3b81"/></g><g transform="translate(446.15,44.62) scale(1.1155) rotate(0)"><path d="M10 0L20 10L10 20L0 10L10 0Z" fill="#566db3"/></g><g transform="translate(468.46,44.62) scale(1.1155) rotate(0)"><path d="M10 0L20 10L10 20L0 10L10 0Z" fill="#637ccf"/></g><g transform="translate(490.77,44.62) scale(1.1155) rotate(0)"><path d="M10 0L20 10L10 20L0 10L10 0Z" fill="#293a7f"/></g><g transform="translate(513.08,44.62) scale(1.1155) rotate(0)"><path d="M10 0L20 10L10 20L0 10L10 0Z" fill="#7390f3"/></g><g transform="translate(535.38,44.62) scale(1.1155) rotate(0)"><path d="M10 0L20 10L10 20L0 10L10 0Z" fill="#212c45"/></g><g transform="translate(557.69,44.62) scale(1.1155) rotate(0)"><path d="M10 0L20 10L10 20L0 10L10 0Z" fill="#263567"/></g><g transform="translate(580,44.62) scale(1.1155) rotate(0)"><path d="M10 0L20 10L10 20L0 10L10 0Z" fill="#7896fe"/></g><g transform="translate(602.31,44.62) scale(1.1155) rotate(0)"><path d="M10 0L20 10L10 20L0 10L10 0Z" fill="#2c4a92"/></g><g transform="translate(624.62,44.62) scale(1.1155) rotate(0)"><path d="M10 0L20 10L10 20L0 10L10 0Z" fill="#354367"/></g><g transform="translate(646.92,44.62) scale(1.1155) rotate(0)"><path d="M10 0L20 10L10 20L0 10L10 0Z" fill="#253962"/></g><g transform="translate(669.23,44.62) scale(1.1155) rotate(0)"><path d="M10 0L20 10L10 20L0 10L10 0Z" fill="#1f2939"/></g><g transform="translate(691.54,44.62) scale(1.1155) rotate(0)"><path d="M10 0L20 10L10 20L0 10L10 0Z" fill="#2c3f94"/></g><g transform="translate(713.85,44.62) scale(1.1155) rotate(0)"><path d="M10 0L20 10L10 20L0 10L10 0Z" fill="#273d6e"/></g><g transform="translate(736.15,44.62) scale(1.1155) rotate(0)"><path d="M10 0L20 10L10 20L0 10L10 0Z" fill="#2b3d8c"/></g><g transform="translate(758.46,44.62) scale(1.1155) rotate(0)"><path d="M10 0L20 10L10 20L0 10L10 0Z" fill="#212b3b"/></g><g transform="translate(780.77,44.62) scale(1.1155) rotate(0)"><path d="M10 0L20 10L10 20L0 10L10 0Z" fill="#233353"/></g><g transform="translate(803.08,44.62) scale(1.1155) rotate(0)"><path d="M10 0L20 10L10 20L0 10L10 0Z" fill="#4b5f9a"/></g><g transform="translate(825.38,44.62) scale(1.1155) rotate(0)"><path d="M10 0L20 10L10 20L0 10L10 0Z" fill="#233055"/></g><g transform="translate(847.69,44.62) scale(1.1155) rotate(0)"><path d="M10 0L20 10L10 20L0 10L10 0Z" fill="#2e4e9d"/></g><g transform="translate(0,66.92) scale(1.1155) rotate(0)"><path d="M10 0L20 10L10 20L0 10L10 0Z" fill="#6079ca"/></g><g transform="translate(22.31,66.92) scale(1.1155) rotate(0)"><path d="M10 0L20 10L10 20L0 10L10 0Z" fill="#222d3e"/></g><g transform="translate(44.62,66.92) scale(1.1155) rotate(0)"><path d="M10 0L20 10L10 20L0 10L10 0Z" fill="#2e50a3"/></g><g transform="translate(66.92,66.92) scale(1.1155) rotate(0)"><path d="M10 0L20 10L10 20L0 10L10 0Z" fill="#1f2a38"/></g><g transform="translate(89.23,66.92) scale(1.1155) rotate(0)"><path d="M10 0L20 10L10 20L0 10L10 0Z" fill="#45588d"/></g><g transform="translate(111.54,66.92) scale(1.1155) rotate(0)"><path d="M10 0L20 10L10 20L0 10L10 0Z" fill="#3e4f7c"/></g><g transform="translate(133.85,66.92) scale(1.1155) rotate(0)"><path d="M10 0L20 10L10 20L0 10L10 0Z" fill="#263569"/></g><g transform="translate(156.15,66.92) scale(1.1155) rotate(0)"><path d="M10 0L20 10L10 20L0 10L10 0Z" fill="#24325d"/></g><g transform="translate(178.46,66.92) scale(1.1155) rotate(0)"><path d="M10 0L20 10L10 20L0 10L10 0Z" fill="#24375d"/></g><g transform="translate(200.77,66.92) scale(1.1155) rotate(0)"><path d="M10 0L20 10L10 20L0 10L10 0Z" fill="#5d75c3"/></g><g transform="translate(223.08,66.92) scale(1.1155) rotate(0)"><path d="M10 0L20 10L10 20L0 10L10 0Z" fill="#294480"/></g><g transform="translate(245.38,66.92) scale(1.1155) rotate(0)"><path d="M10 0L20 10L10 20L0 10L10 0Z" fill="#202b40"/></g><g transform="translate(267.69,66.92) scale(1.1155) rotate(0)"><path d="M10 0L20 10L10 20L0 10L10 0Z" fill="#3563d5"/></g><g transform="translate(290,66.92) scale(1.1155) rotate(0)"><path d="M10 0L20 10L10 20L0 10L10 0Z" fill="#2b3d89"/></g><g transform="translate(312.31,66.92) scale(1.1155) rotate(0)"><path d="M10 0L20 10L10 20L0 10L10 0Z" fill="#4c609d"/></g><g transform="translate(334.62,66.92) scale(1.1155) rotate(0)"><path d="M10 0L20 10L10 20L0 10L10 0Z" fill="#3767e1"/></g><g transform="translate(356.92,66.92) scale(1.1155) rotate(0)"><path d="M10 0L20 10L10 20L0 10L10 0Z" fill="#586fb8"/></g><g transform="translate(379.23,66.92) scale(1.1155) rotate(0)"><path d="M10 0L20 10L10 20L0 10L10 0Z" fill="#2f52a7"/></g><g transform="translate(401.54,66.92) scale(1.1155) rotate(0)"><path d="M10 0L20 10L10 20L0 10L10 0Z" fill="#27366f"/></g><g transform="translate(423.85,66.92) scale(1.1155) rotate(0)"><path d="M10 0L20 10L10 20L0 10L10 0Z" fill="#2a3b82"/></g><g transform="translate(446.15,66.92) scale(1.1155) rotate(0)"><path d="M10 0L20 10L10 20L0 10L10 0Z" fill="#29437e"/></g><g transform="translate(468.46,66.92) scale(1.1155) rotate(0)"><path d="M10 0L20 10L10 20L0 10L10 0Z" fill="#2e429f"/></g><g transform="translate(490.77,66.92) scale(1.1155) rotate(0)"><path d="M10 0L20 10L10 20L0 10L10 0Z" fill="#334164"/></g><g transform="translate(513.08,66.92) scale(1.1155) rotate(0)"><path d="M10 0L20 10L10 20L0 10L10 0Z" fill="#233455"/></g><g transform="translate(535.38,66.92) scale(1.1155) rotate(0)"><path d="M10 0L20 10L10 20L0 10L10 0Z" fill="#627bce"/></g><g transform="translate(557.69,66.92) scale(1.1155) rotate(0)"><path d="M10 0L20 10L10 20L0 10L10 0Z" fill="#222e4e"/></g><g transform="translate(580,66.92) scale(1.1155) rotate(0)"><path d="M10 0L20 10L10 20L0 10L10 0Z" fill="#4e62a0"/></g><g transform="translate(602.31,66.92) scale(1.1155) rotate(0)"><path d="M10 0L20 10L10 20L0 10L10 0Z" fill="#3563d5"/></g><g transform="translate(624.62,66.92) scale(1.1155) rotate(0)"><path d="M10 0L20 10L10 20L0 10L10 0Z" fill="#2c4a93"/></g><g transform="translate(646.92,66.92) scale(1.1155) rotate(0)"><path d="M10 0L20 10L10 20L0 10L10 0Z" fill="#273771"/></g><g transform="translate(669.23,66.92) scale(1.1155) rotate(0)"><path d="M10 0L20 10L10 20L0 10L10 0Z" fill="#283874"/></g><g transform="translate(691.54,66.92) scale(1.1155) rotate(0)"><path d="M10 0L20 10L10 20L0 10L10 0Z" fill="#263466"/></g><g transform="translate(713.85,66.92) scale(1.1155) rotate(0)"><path d="M10 0L20 10L10 20L0 10L10 0Z" fill="#28344a"/></g><g transform="translate(736.15,66.92) scale(1.1155) rotate(0)"><path d="M10 0L20 10L10 20L0 10L10 0Z" fill="#5f77c7"/></g><g transform="translate(758.46,66.92) scale(1.1155) rotate(0)"><path d="M10 0L20 10L10 20L0 10L10 0Z" fill="#25385f"/></g><g transform="translate(780.77,66.92) scale(1.1155) rotate(0)"><path d="M10 0L20 10L10 20L0 10L10 0Z" fill="#4a5d97"/></g><g transform="translate(803.08,66.92) scale(1.1155) rotate(0)"><path d="M10 0L20 10L10 20L0 10L10 0Z" fill="#233457"/></g><g transform="translate(825.38,66.92) scale(1.1155) rotate(0)"><path d="M10 0L20 10L10 20L0 10L10 0Z" fill="#313f5f"/></g><g transform="translate(847.69,66.92) scale(1.1155) rotate(0)"><path d="M10 0L20 10L10 20L0 10L10 0Z" fill="#222d3e"/></g><g transform="translate(0,89.23) scale(1.1155) rotate(0)"><path d="M10 0L20 10L10 20L0 10L10 0Z" fill="#2c3f93"/></g><g transform="translate(22.31,89.23) scale(1.1155) rotate(0)"><path d="M10 0L20 10L10 20L0 10L10 0Z" fill="#6c88e4"/></g><g transform="translate(44.62,89.23) scale(1.1155) rotate(0)"><path d="M10 0L20 10L10 20L0 10L10 0Z" fill="#6f8aea"/></g><g transform="translate(66.92,89.23) scale(1.1155) rotate(0)"><path d="M10 0L20 10L10 20L0 10L10 0Z" fill="#345fcc"/></g><g transform="translate(89.23,89.23) scale(1.1155) rotate(0)"><path d="M10 0L20 10L10 20L0 10L10 0Z" fill="#6d88e6"/></g><g transform="translate(111.54,89.23) scale(1.1155) rotate(0)"><path d="M10 0L20 10L10 20L0 10L10 0Z" fill="#335dc5"/></g><g transform="translate(133.85,89.23) scale(1.1155) rotate(0)"><path d="M10 0L20 10L10 20L0 10L10 0Z" fill="#3158b7"/></g><g transform="translate(156.15,89.23) scale(1.1155) rotate(0)"><path d="M10 0L20 10L10 20L0 10L10 0Z" fill="#3b4c77"/></g><g transform="translate(178.46,89.23) scale(1.1155) rotate(0)"><path d="M10 0L20 10L10 20L0 10L10 0Z" fill="#27366c"/></g><g transform="translate(200.77,89.23) scale(1.1155) rotate(0)"><path d="M10 0L20 10L10 20L0 10L10 0Z" fill="#263569"/></g><g transform="translate(223.08,89.23) scale(1.1155) rotate(0)"><path d="M10 0L20 10L10 20L0 10L10 0Z" fill="#2b4788"/></g><g transform="translate(245.38,89.23) scale(1.1155) rotate(0)"><path d="M10 0L20 10L10 20L0 10L10 0Z" fill="#24325d"/></g><g transform="translate(267.69,89.23) scale(1.1155) rotate(0)"><path d="M10 0L20 10L10 20L0 10L10 0Z" fill="#5d74c1"/></g><g transform="translate(290,89.23) scale(1.1155) rotate(0)"><path d="M10 0L20 10L10 20L0 10L10 0Z" fill="#6078c8"/></g><g transform="translate(312.31,89.23) scale(1.1155) rotate(0)"><path d="M10 0L20 10L10 20L0 10L10 0Z" fill="#222f4f"/></g><g transform="translate(334.62,89.23) scale(1.1155) rotate(0)"><path d="M10 0L20 10L10 20L0 10L10 0Z" fill="#3766e0"/></g><g transform="translate(356.92,89.23) scale(1.1155) rotate(0)"><path d="M10 0L20 10L10 20L0 10L10 0Z" fill="#212c44"/></g><g transform="translate(379.23,89.23) scale(1.1155) rotate(0)"><path d="M10 0L20 10L10 20L0 10L10 0Z" fill="#202b3e"/></g><g transform="translate(401.54,89.23) scale(1.1155) rotate(0)"><path d="M10 0L20 10L10 20L0 10L10 0Z" fill="#3055b0"/></g><g transform="translate(423.85,89.23) scale(1.1155) rotate(0)"><path d="M10 0L20 10L10 20L0 10L10 0Z" fill="#7693fa"/></g><g transform="translate(446.15,89.23) scale(1.1155) rotate(0)"><path d="M10 0L20 10L10 20L0 10L10 0Z" fill="#3869e6"/></g><g transform="translate(468.46,89.23) scale(1.1155) rotate(0)"><path d="M10 0L20 10L10 20L0 10L10 0Z" fill="#3868e5"/></g><g transform="translate(490.77,89.23) scale(1.1155) rotate(0)"><path d="M10 0L20 10L10 20L0 10L10 0Z" fill="#212d43"/></g><g transform="translate(513.08,89.23) scale(1.1155) rotate(0)"><path d="M10 0L20 10L10 20L0 10L10 0Z" fill="#4e63a1"/></g><g transform="translate(535.38,89.23) scale(1.1155) rotate(0)"><path d="M10 0L20 10L10 20L0 10L10 0Z" fill="#212f48"/></g><g transform="translate(557.69,89.23) scale(1.1155) rotate(0)"><path d="M10 0L20 10L10 20L0 10L10 0Z" fill="#36456a"/></g><g transform="translate(580,89.23) scale(1.1155) rotate(0)"><path d="M10 0L20 10L10 20L0 10L10 0Z" fill="#2a3c86"/></g><g transform="translate(602.31,89.23) scale(1.1155) rotate(0)"><path d="M10 0L20 10L10 20L0 10L10 0Z" fill="#24365c"/></g><g transform="translate(624.62,89.23) scale(1.1155) rotate(0)"><path d="M10 0L20 10L10 20L0 10L10 0Z" fill="#222c3d"/></g><g transform="translate(646.92,89.23) scale(1.1155) rotate(0)"><path d="M10 0L20 10L10 20L0 10L10 0Z" fill="#283773"/></g><g transform="translate(669.23,89.23) scale(1.1155) rotate(0)"><path d="M10 0L20 10L10 20L0 10L10 0Z" fill="#345fcc"/></g><g transform="translate(691.54,89.23) scale(1.1155) rotate(0)"><path d="M10 0L20 10L10 20L0 10L10 0Z" fill="#3056b2"/></g><g transform="translate(713.85,89.23) scale(1.1155) rotate(0)"><path d="M10 0L20 10L10 20L0 10L10 0Z" fill="#232f50"/></g><g transform="translate(736.15,89.23) scale(1.1155) rotate(0)"><path d="M10 0L20 10L10 20L0 10L10 0Z" fill="#3562d5"/></g><g transform="translate(758.46,89.23) scale(1.1155) rotate(0)"><path d="M10 0L20 10L10 20L0 10L10 0Z" fill="#425486"/></g><g transform="translate(780.77,89.23) scale(1.1155) rotate(0)"><path d="M10 0L20 10L10 20L0 10L10 0Z" fill="#2e4f9f"/></g><g transform="translate(803.08,89.23) scale(1.1155) rotate(0)"><path d="M10 0L20 10L10 20L0 10L10 0Z" fill="#27366c"/></g><g transform="translate(825.38,89.23) scale(1.1155) rotate(0)"><path d="M10 0L20 10L10 20L0 10L10 0Z" fill="#5065a5"/></g><g transform="translate(847.69,89.23) scale(1.1155) rotate(0)"><path d="M10 0L20 10L10 20L0 10L10 0Z" fill="#202b3e"/></g><g transform="translate(0,111.54) scale(1.1155) rotate(0)"><path d="M10 0L20 10L10 20L0 10L10 0Z" fill="#2f52a7"/></g><g transform="translate(22.31,111.54) scale(1.1155) rotate(0)"><path d="M10 0L20 10L10 20L0 10L10 0Z" fill="#576db4"/></g><g transform="translate(44.62,111.54) scale(1.1155) rotate(0)"><path d="M10 0L20 10L10 20L0 10L10 0Z" fill="#2f51a6"/></g><g transform="translate(66.92,111.54) scale(1.1155) rotate(0)"><path d="M10 0L20 10L10 20L0 10L10 0Z" fill="#335cc3"/></g><g transform="translate(89.23,111.54) scale(1.1155) rotate(0)"><path d="M10 0L20 10L10 20L0 10L10 0Z" fill="#5369ad"/></g><g transform="translate(111.54,111.54) scale(1.1155) rotate(0)"><path d="M10 0L20 10L10 20L0 10L10 0Z" fill="#3767e1"/></g><g transform="translate(133.85,111.54) scale(1.1155) rotate(0)"><path d="M10 0L20 10L10 20L0 10L10 0Z" fill="#3d4d7a"/></g><g transform="translate(156.15,111.54) scale(1.1155) rotate(0)"><path d="M10 0L20 10L10 20L0 10L10 0Z" fill="#253464"/></g><g transform="translate(178.46,111.54) scale(1.1155) rotate(0)"><path d="M10 0L20 10L10 20L0 10L10 0Z" fill="#273248"/></g><g transform="translate(200.77,111.54) scale(1.1155) rotate(0)"><path d="M10 0L20 10L10 20L0 10L10 0Z" fill="#202a39"/></g><g transform="translate(223.08,111.54) scale(1.1155) rotate(0)"><path d="M10 0L20 10L10 20L0 10L10 0Z" fill="#475a91"/></g><g transform="translate(245.38,111.54) scale(1.1155) rotate(0)"><path d="M10 0L20 10L10 20L0 10L10 0Z" fill="#2f44a8"/></g><g transform="translate(267.69,111.54) scale(1.1155) rotate(0)"><path d="M10 0L20 10L10 20L0 10L10 0Z" fill="#2c3853"/></g><g transform="translate(290,111.54) scale(1.1155) rotate(0)"><path d="M10 0L20 10L10 20L0 10L10 0Z" fill="#5065a6"/></g><g transform="translate(312.31,111.54) scale(1.1155) rotate(0)"><path d="M10 0L20 10L10 20L0 10L10 0Z" fill="#2d4c97"/></g><g transform="translate(334.62,111.54) scale(1.1155) rotate(0)"><path d="M10 0L20 10L10 20L0 10L10 0Z" fill="#283978"/></g><g transform="translate(356.92,111.54) scale(1.1155) rotate(0)"><path d="M10 0L20 10L10 20L0 10L10 0Z" fill="#3146b1"/></g><g transform="translate(379.23,111.54) scale(1.1155) rotate(0)"><path d="M10 0L20 10L10 20L0 10L10 0Z" fill="#2e4f9f"/></g><g transform="translate(401.54,111.54) scale(1.1155) rotate(0)"><path d="M10 0L20 10L10 20L0 10L10 0Z" fill="#3868e4"/></g><g transform="translate(423.85,111.54) scale(1.1155) rotate(0)"><path d="M10 0L20 10L10 20L0 10L10 0Z" fill="#2e429f"/></g><g transform="translate(446.15,111.54) scale(1.1155) rotate(0)"><path d="M10 0L20 10L10 20L0 10L10 0Z" fill="#6f8beb"/></g><g transform="translate(468.46,111.54) scale(1.1155) rotate(0)"><path d="M10 0L20 10L10 20L0 10L10 0Z" fill="#4d629f"/></g><g transform="translate(490.77,111.54) scale(1.1155) rotate(0)"><path d="M10 0L20 10L10 20L0 10L10 0Z" fill="#6984de"/></g><g transform="translate(513.08,111.54) scale(1.1155) rotate(0)"><path d="M10 0L20 10L10 20L0 10L10 0Z" fill="#3259bc"/></g><g transform="translate(535.38,111.54) scale(1.1155) rotate(0)"><path d="M10 0L20 10L10 20L0 10L10 0Z" fill="#263b68"/></g><g transform="translate(557.69,111.54) scale(1.1155) rotate(0)"><path d="M10 0L20 10L10 20L0 10L10 0Z" fill="#284076"/></g><g transform="translate(580,111.54) scale(1.1155) rotate(0)"><path d="M10 0L20 10L10 20L0 10L10 0Z" fill="#273d6d"/></g><g transform="translate(602.31,111.54) scale(1.1155) rotate(0)"><path d="M10 0L20 10L10 20L0 10L10 0Z" fill="#263568"/></g><g transform="translate(624.62,111.54) scale(1.1155) rotate(0)"><path d="M10 0L20 10L10 20L0 10L10 0Z" fill="#212c42"/></g><g transform="translate(646.92,111.54) scale(1.1155) rotate(0)"><path d="M10 0L20 10L10 20L0 10L10 0Z" fill="#273f72"/></g><g transform="translate(669.23,111.54) scale(1.1155) rotate(0)"><path d="M10 0L20 10L10 20L0 10L10 0Z" fill="#263a67"/></g><g transform="translate(691.54,111.54) scale(1.1155) rotate(0)"><path d="M10 0L20 10L10 20L0 10L10 0Z" fill="#212d48"/></g><g transform="translate(713.85,111.54) scale(1.1155) rotate(0)"><path d="M10 0L20 10L10 20L0 10L10 0Z" fill="#334265"/></g><g transform="translate(736.15,111.54) scale(1.1155) rotate(0)"><path d="M10 0L20 10L10 20L0 10L10 0Z" fill="#263a66"/></g><g transform="translate(758.46,111.54) scale(1.1155) rotate(0)"><path d="M10 0L20 10L10 20L0 10L10 0Z" fill="#2e50a3"/></g><g transform="translate(780.77,111.54) scale(1.1155) rotate(0)"><path d="M10 0L20 10L10 20L0 10L10 0Z" fill="#2b488b"/></g><g transform="translate(803.08,111.54) scale(1.1155) rotate(0)"><path d="M10 0L20 10L10 20L0 10L10 0Z" fill="#2a3c86"/></g><g transform="translate(825.38,111.54) scale(1.1155) rotate(0)"><path d="M10 0L20 10L10 20L0 10L10 0Z" fill="#243157"/></g><g transform="translate(847.69,111.54) scale(1.1155) rotate(0)"><path d="M10 0L20 10L10 20L0 10L10 0Z" fill="#2e429e"/></g><g transform="translate(0,133.85) scale(1.1155) rotate(0)"><path d="M10 0L20 10L10 20L0 10L10 0Z" fill="#24375d"/></g><g transform="translate(22.31,133.85) scale(1.1155) rotate(0)"><path d="M10 0L20 10L10 20L0 10L10 0Z" fill="#3156b4"/></g><g transform="translate(44.62,133.85) scale(1.1155) rotate(0)"><path d="M10 0L20 10L10 20L0 10L10 0Z" fill="#1f2937"/></g><g transform="translate(66.92,133.85) scale(1.1155) rotate(0)"><path d="M10 0L20 10L10 20L0 10L10 0Z" fill="#3157b7"/></g><g transform="translate(89.23,133.85) scale(1.1155) rotate(0)"><path d="M10 0L20 10L10 20L0 10L10 0Z" fill="#263467"/></g><g transform="translate(111.54,133.85) scale(1.1155) rotate(0)"><path d="M10 0L20 10L10 20L0 10L10 0Z" fill="#212d48"/></g><g transform="translate(133.85,133.85) scale(1.1155) rotate(0)"><path d="M10 0L20 10L10 20L0 10L10 0Z" fill="#335cc4"/></g><g transform="translate(156.15,133.85) scale(1.1155) rotate(0)"><path d="M10 0L20 10L10 20L0 10L10 0Z" fill="#2d4097"/></g><g transform="translate(178.46,133.85) scale(1.1155) rotate(0)"><path d="M10 0L20 10L10 20L0 10L10 0Z" fill="#425485"/></g><g transform="translate(200.77,133.85) scale(1.1155) rotate(0)"><path d="M10 0L20 10L10 20L0 10L10 0Z" fill="#212e45"/></g><g transform="translate(223.08,133.85) scale(1.1155) rotate(0)"><path d="M10 0L20 10L10 20L0 10L10 0Z" fill="#2c3954"/></g><g transform="translate(245.38,133.85) scale(1.1155) rotate(0)"><path d="M10 0L20 10L10 20L0 10L10 0Z" fill="#475a90"/></g><g transform="translate(267.69,133.85) scale(1.1155) rotate(0)"><path d="M10 0L20 10L10 20L0 10L10 0Z" fill="#3c4d79"/></g><g transform="translate(290,133.85) scale(1.1155) rotate(0)"><path d="M10 0L20 10L10 20L0 10L10 0Z" fill="#2a3b83"/></g><g transform="translate(312.31,133.85) scale(1.1155) rotate(0)"><path d="M10 0L20 10L10 20L0 10L10 0Z" fill="#243158"/></g><g transform="translate(334.62,133.85) scale(1.1155) rotate(0)"><path d="M10 0L20 10L10 20L0 10L10 0Z" fill="#5065a4"/></g><g transform="translate(356.92,133.85) scale(1.1155) rotate(0)"><path d="M10 0L20 10L10 20L0 10L10 0Z" fill="#222d3e"/></g><g transform="translate(379.23,133.85) scale(1.1155) rotate(0)"><path d="M10 0L20 10L10 20L0 10L10 0Z" fill="#273d6e"/></g><g transform="translate(401.54,133.85) scale(1.1155) rotate(0)"><path d="M10 0L20 10L10 20L0 10L10 0Z" fill="#3663d7"/></g><g transform="translate(423.85,133.85) scale(1.1155) rotate(0)"><path d="M10 0L20 10L10 20L0 10L10 0Z" fill="#222f4f"/></g><g transform="translate(446.15,133.85) scale(1.1155) rotate(0)"><path d="M10 0L20 10L10 20L0 10L10 0Z" fill="#5e76c4"/></g><g transform="translate(468.46,133.85) scale(1.1155) rotate(0)"><path d="M10 0L20 10L10 20L0 10L10 0Z" fill="#212d43"/></g><g transform="translate(490.77,133.85) scale(1.1155) rotate(0)"><path d="M10 0L20 10L10 20L0 10L10 0Z" fill="#3767e2"/></g><g transform="translate(513.08,133.85) scale(1.1155) rotate(0)"><path d="M10 0L20 10L10 20L0 10L10 0Z" fill="#2a3c85"/></g><g transform="translate(535.38,133.85) scale(1.1155) rotate(0)"><path d="M10 0L20 10L10 20L0 10L10 0Z" fill="#3560cf"/></g><g transform="translate(557.69,133.85) scale(1.1155) rotate(0)"><path d="M10 0L20 10L10 20L0 10L10 0Z" fill="#5066a6"/></g><g transform="translate(580,133.85) scale(1.1155) rotate(0)"><path d="M10 0L20 10L10 20L0 10L10 0Z" fill="#2a4686"/></g><g transform="translate(602.31,133.85) scale(1.1155) rotate(0)"><path d="M10 0L20 10L10 20L0 10L10 0Z" fill="#5c74c1"/></g><g transform="translate(624.62,133.85) scale(1.1155) rotate(0)"><path d="M10 0L20 10L10 20L0 10L10 0Z" fill="#233055"/></g><g transform="translate(646.92,133.85) scale(1.1155) rotate(0)"><path d="M10 0L20 10L10 20L0 10L10 0Z" fill="#2d4e9d"/></g><g transform="translate(669.23,133.85) scale(1.1155) rotate(0)"><path d="M10 0L20 10L10 20L0 10L10 0Z" fill="#273d6d"/></g><g transform="translate(691.54,133.85) scale(1.1155) rotate(0)"><path d="M10 0L20 10L10 20L0 10L10 0Z" fill="#283978"/></g><g transform="translate(713.85,133.85) scale(1.1155) rotate(0)"><path d="M10 0L20 10L10 20L0 10L10 0Z" fill="#2a4686"/></g><g transform="translate(736.15,133.85) scale(1.1155) rotate(0)"><path d="M10 0L20 10L10 20L0 10L10 0Z" fill="#2b3d8c"/></g><g transform="translate(758.46,133.85) scale(1.1155) rotate(0)"><path d="M10 0L20 10L10 20L0 10L10 0Z" fill="#3056b2"/></g><g transform="translate(780.77,133.85) scale(1.1155) rotate(0)"><path d="M10 0L20 10L10 20L0 10L10 0Z" fill="#273f73"/></g><g transform="translate(803.08,133.85) scale(1.1155) rotate(0)"><path d="M10 0L20 10L10 20L0 10L10 0Z" fill="#2b3e8d"/></g><g transform="translate(825.38,133.85) scale(1.1155) rotate(0)"><path d="M10 0L20 10L10 20L0 10L10 0Z" fill="#29397a"/></g><g transform="translate(847.69,133.85) scale(1.1155) rotate(0)"><path d="M10 0L20 10L10 20L0 10L10 0Z" fill="#2b488c"/></g></g></svg>