<?xml version="1.0" standalone="no"?><svg xmlns:xlink="http://www.w3.org/1999/xlink" xmlns="http://www.w3.org/2000/svg" viewBox="0 0 1000 444.4448275862068" preserveAspectRatio="xMaxYMax slice"><g transform="scale(1.1494252873563218)"><rect x="0" y="0" width="870" height="418.88888888888886" fill="#1f2937"/><g transform="translate(590.99,43.21) scale(0.5125) rotate(0)"><rect width="2" height="20" fill="#1d2e60"/><rect x="4" width="2" height="20" fill="#1d2e60"/><rect x="8" width="2" height="20" fill="#1d2e60"/><rect x="12" width="2" height="20" fill="#1d2e60"/><rect x="16" width="2" height="20" fill="#1d2e60"/></g><g transform="translate(720.72,44.05) scale(0.42800000000000005) rotate(0)"><path fill-rule="evenodd" clip-rule="evenodd" d="M10 20C15.5228 20 20 15.5228 20 10C20 4.47715 15.5228 0 10 0C4.47715 0 0 4.47715 0 10C0 15.5228 4.47715 20 10 20ZM10 17C13.866 17 17 13.866 17 10C17 6.13401 13.866 3 10 3C6.13401 3 3 6.13401 3 10C3 13.866 6.13401 17 10 17Z" fill="#1c3279"/></g><g transform="translate(362.68,72.68) scale(0.7875) rotate(0)"><path fill-rule="evenodd" clip-rule="evenodd" d="M10 20C15.5228 20 20 15.5228 20 10C20 4.47715 15.5228 0 10 0C4.47715 0 0 4.47715 0 10C0 15.5228 4.47715 20 10 20ZM10 17C13.866 17 17 13.866 17 10C17 6.13401 13.866 3 10 3C6.13401 3 3 6.13401 3 10C3 13.866 6.13401 17 10 17Z" fill="#1b3490"/></g><g transform="translate(427.02,72.57) scale(0.798) rotate(0)"><rect width="2" height="20" fill="#193ccb"/><rect x="4" width="2" height="20" fill="#193ccb"/><rect x="8" width="2" height="20" fill="#193ccb"/><rect x="12" width="2" height="20" fill="#193ccb"/><rect x="16" width="2" height="20" fill="#193ccb"/></g><g transform="translate(621.73,73.95) scale(0.6605000000000001) rotate(0)"><rect width="20" height="2" fill="#1b37a1"/><rect y="4" width="20" height="2" fill="#1b37a1"/><rect y="8" width="20" height="2" fill="#1b37a1"/><rect y="12" width="20" height="2" fill="#1b37a1"/><rect y="16" width="20" height="2" fill="#1b37a1"/></g><g transform="translate(202.42,105.75) scale(0.7030000000000001) rotate(0)"><rect width="2" height="20" fill="#1f2a3f"/><rect x="4" width="2" height="20" fill="#1f2a3f"/><rect x="8" width="2" height="20" fill="#1f2a3f"/><rect x="12" width="2" height="20" fill="#1f2a3f"/><rect x="16" width="2" height="20" fill="#1f2a3f"/></g><g transform="translate(360.35,102.58) scale(1.02) rotate(0)"><path fill-rule="evenodd" clip-rule="evenodd" d="M10 20C15.5228 20 20 15.5228 20 10C20 4.47715 15.5228 0 10 0C4.47715 0 0 4.47715 0 10C0 15.5228 4.47715 20 10 20ZM10 17C13.866 17 17 13.866 17 10C17 6.13401 13.866 3 10 3C6.13401 3 3 6.13401 3 10C3 13.866 6.13401 17 10 17Z" fill="#1b3596"/></g><g transform="translate(392.42,102.42) scale(1.036) rotate(0)"><rect width="20" height="2" fill="#1c3279"/><rect y="4" width="20" height="2" fill="#1c3279"/><rect y="8" width="20" height="2" fill="#1c3279"/><rect y="12" width="20" height="2" fill="#1c3279"/><rect y="16" width="20" height="2" fill="#1c3279"/></g><g transform="translate(489.08,102.42) scale(1.036) rotate(0)"><rect width="2" height="20" fill="#1a39b0"/><rect x="4" width="2" height="20" fill="#1a39b0"/><rect x="8" width="2" height="20" fill="#1a39b0"/><rect x="12" width="2" height="20" fill="#1a39b0"/><rect x="16" width="2" height="20" fill="#1a39b0"/></g><g transform="translate(521.46,102.58) scale(1.02) rotate(0)"><rect width="2" height="20" fill="#193dd5"/><rect x="4" width="2" height="20" fill="#193dd5"/><rect x="8" width="2" height="20" fill="#193dd5"/><rect x="12" width="2" height="20" fill="#193dd5"/><rect x="16" width="2" height="20" fill="#193dd5"/></g><g transform="translate(554.32,103.21) scale(0.9570000000000001) rotate(0)"><path fill-rule="evenodd" clip-rule="evenodd" d="M10 20C15.5228 20 20 15.5228 20 10C20 4.47715 15.5228 0 10 0C4.47715 0 0 4.47715 0 10C0 15.5228 4.47715 20 10 20ZM10 17C13.866 17 17 13.866 17 10C17 6.13401 13.866 3 10 3C6.13401 3 3 6.13401 3 10C3 13.866 6.13401 17 10 17Z" fill="#1b3698"/></g><g transform="translate(718.61,106.38) scale(0.6395) rotate(0)"><path fill-rule="evenodd" clip-rule="evenodd" d="M10 20C15.5228 20 20 15.5228 20 10C20 4.47715 15.5228 0 10 0C4.47715 0 0 4.47715 0 10C0 15.5228 4.47715 20 10 20ZM10 17C13.866 17 17 13.866 17 10C17 6.13401 13.866 3 10 3C6.13401 3 3 6.13401 3 10C3 13.866 6.13401 17 10 17Z" fill="#1d3171"/></g><g transform="translate(784.32,107.65) scale(0.5125) rotate(0)"><rect width="20" height="2" fill="#1d2f66"/><rect y="4" width="20" height="2" fill="#1d2f66"/><rect y="8" width="20" height="2" fill="#1d2f66"/><rect y="12" width="20" height="2" fill="#1d2f66"/><rect y="16" width="20" height="2" fill="#1d2f66"/></g><g transform="translate(138.39,138.39) scale(0.6605000000000001) rotate(0)"><rect width="20" height="2" fill="#1d2f67"/><rect y="4" width="20" height="2" fill="#1d2f67"/><rect y="8" width="20" height="2" fill="#1d2f67"/><rect y="12" width="20" height="2" fill="#1d2f67"/><rect y="16" width="20" height="2" fill="#1d2f67"/></g><g transform="translate(201.15,136.7) scale(0.8300000000000001) rotate(0)"><rect width="2" height="20" fill="#1d2f69"/><rect x="4" width="2" height="20" fill="#1d2f69"/><rect x="8" width="2" height="20" fill="#1d2f69"/><rect x="12" width="2" height="20" fill="#1d2f69"/><rect x="16" width="2" height="20" fill="#1d2f69"/></g><g transform="translate(326.65,133.32) scale(1.1685) rotate(0)"><rect width="2" height="20" fill="#1e2c4f"/><rect x="4" width="2" height="20" fill="#1e2c4f"/><rect x="8" width="2" height="20" fill="#1e2c4f"/><rect x="12" width="2" height="20" fill="#1e2c4f"/><rect x="16" width="2" height="20" fill="#1e2c4f"/></g><g transform="translate(422.26,132.26) scale(1.274) rotate(0)"><path fill-rule="evenodd" clip-rule="evenodd" d="M10 20C15.5228 20 20 15.5228 20 10C20 4.47715 15.5228 0 10 0C4.47715 0 0 4.47715 0 10C0 15.5228 4.47715 20 10 20ZM10 17C13.866 17 17 13.866 17 10C17 6.13401 13.866 3 10 3C6.13401 3 3 6.13401 3 10C3 13.866 6.13401 17 10 17Z" fill="#1e2b49"/></g><g transform="translate(486.7,132.26) scale(1.274) rotate(0)"><path fill-rule="evenodd" clip-rule="evenodd" d="M10 20C15.5228 20 20 15.5228 20 10C20 4.47715 15.5228 0 10 0C4.47715 0 0 4.47715 0 10C0 15.5228 4.47715 20 10 20ZM10 17C13.866 17 17 13.866 17 10C17 6.13401 13.866 3 10 3C6.13401 3 3 6.13401 3 10C3 13.866 6.13401 17 10 17Z" fill="#183fe0"/></g><g transform="translate(519.14,132.47) scale(1.253) rotate(0)"><path fill-rule="evenodd" clip-rule="evenodd" d="M10 20C15.5228 20 20 15.5228 20 10C20 4.47715 15.5228 0 10 0C4.47715 0 0 4.47715 0 10C0 15.5228 4.47715 20 10 20ZM10 17C13.866 17 17 13.866 17 10C17 6.13401 13.866 3 10 3C6.13401 3 3 6.13401 3 10C3 13.866 6.13401 17 10 17Z" fill="#1a3ab7"/></g><g transform="translate(552.21,133.32) scale(1.1685) rotate(0)"><path fill-rule="evenodd" clip-rule="evenodd" d="M10 20C15.5228 20 20 15.5228 20 10C20 4.47715 15.5228 0 10 0C4.47715 0 0 4.47715 0 10C0 15.5228 4.47715 20 10 20ZM10 17C13.866 17 17 13.866 17 10C17 6.13401 13.866 3 10 3C6.13401 3 3 6.13401 3 10C3 13.866 6.13401 17 10 17Z" fill="#1d2e5c"/></g><g transform="translate(585.27,134.16) scale(1.0835000000000001) rotate(0)"><path fill-rule="evenodd" clip-rule="evenodd" d="M10 20C15.5228 20 20 15.5228 20 10C20 4.47715 15.5228 0 10 0C4.47715 0 0 4.47715 0 10C0 15.5228 4.47715 20 10 20ZM10 17C13.866 17 17 13.866 17 10C17 6.13401 13.866 3 10 3C6.13401 3 3 6.13401 3 10C3 13.866 6.13401 17 10 17Z" fill="#1a38ac"/></g><g transform="translate(618.34,135.01) scale(0.999) rotate(0)"><rect width="2" height="20" fill="#1b3591"/><rect x="4" width="2" height="20" fill="#1b3591"/><rect x="8" width="2" height="20" fill="#1b3591"/><rect x="12" width="2" height="20" fill="#1b3591"/><rect x="16" width="2" height="20" fill="#1b3591"/></g><g transform="translate(651.41,135.86) scale(0.9145) rotate(0)"><rect width="2" height="20" fill="#193abe"/><rect x="4" width="2" height="20" fill="#193abe"/><rect x="8" width="2" height="20" fill="#193abe"/><rect x="12" width="2" height="20" fill="#193abe"/><rect x="16" width="2" height="20" fill="#193abe"/></g><g transform="translate(684.48,136.7) scale(0.8300000000000001) rotate(0)"><path fill-rule="evenodd" clip-rule="evenodd" d="M10 20C15.5228 20 20 15.5228 20 10C20 4.47715 15.5228 0 10 0C4.47715 0 0 4.47715 0 10C0 15.5228 4.47715 20 10 20ZM10 17C13.866 17 17 13.866 17 10C17 6.13401 13.866 3 10 3C6.13401 3 3 6.13401 3 10C3 13.866 6.13401 17 10 17Z" fill="#183ed9"/></g><g transform="translate(750.62,138.39) scale(0.6605000000000001) rotate(0)"><rect width="20" height="2" fill="#1d2e5f"/><rect y="4" width="20" height="2" fill="#1d2e5f"/><rect y="8" width="20" height="2" fill="#1d2e5f"/><rect y="12" width="20" height="2" fill="#1d2e5f"/><rect y="16" width="20" height="2" fill="#1d2e5f"/></g><g transform="translate(199.88,167.65) scale(0.9570000000000001) rotate(0)"><rect width="2" height="20" fill="#193bc4"/><rect x="4" width="2" height="20" fill="#193bc4"/><rect x="8" width="2" height="20" fill="#193bc4"/><rect x="12" width="2" height="20" fill="#193bc4"/><rect x="16" width="2" height="20" fill="#193bc4"/></g><g transform="translate(262.21,165.54) scale(1.1685) rotate(0)"><rect width="2" height="20" fill="#193dd2"/><rect x="4" width="2" height="20" fill="#193dd2"/><rect x="8" width="2" height="20" fill="#193dd2"/><rect x="12" width="2" height="20" fill="#193dd2"/><rect x="16" width="2" height="20" fill="#193dd2"/></g><g transform="translate(293.37,164.48) scale(1.274) rotate(0)"><path fill-rule="evenodd" clip-rule="evenodd" d="M10 20C15.5228 20 20 15.5228 20 10C20 4.47715 15.5228 0 10 0C4.47715 0 0 4.47715 0 10C0 15.5228 4.47715 20 10 20ZM10 17C13.866 17 17 13.866 17 10C17 6.13401 13.866 3 10 3C6.13401 3 3 6.13401 3 10C3 13.866 6.13401 17 10 17Z" fill="#1a37a7"/></g><g transform="translate(324.54,163.42) scale(1.3800000000000001) rotate(0)"><rect width="2" height="20" fill="#1b348f"/><rect x="4" width="2" height="20" fill="#1b348f"/><rect x="8" width="2" height="20" fill="#1b348f"/><rect x="12" width="2" height="20" fill="#1b348f"/><rect x="16" width="2" height="20" fill="#1b348f"/></g><g transform="translate(355.7,162.37) scale(1.4855) rotate(0)"><rect width="2" height="20" fill="#193bc0"/><rect x="4" width="2" height="20" fill="#193bc0"/><rect x="8" width="2" height="20" fill="#193bc0"/><rect x="12" width="2" height="20" fill="#193bc0"/><rect x="16" width="2" height="20" fill="#193bc0"/></g><g transform="translate(387.66,162.1) scale(1.512) rotate(0)"><rect width="20" height="2" fill="#1e2d57"/><rect y="4" width="20" height="2" fill="#1e2d57"/><rect y="8" width="20" height="2" fill="#1e2d57"/><rect y="12" width="20" height="2" fill="#1e2d57"/><rect y="16" width="20" height="2" fill="#1e2d57"/></g><g transform="translate(419.88,162.1) scale(1.512) rotate(0)"><path fill-rule="evenodd" clip-rule="evenodd" d="M10 20C15.5228 20 20 15.5228 20 10C20 4.47715 15.5228 0 10 0C4.47715 0 0 4.47715 0 10C0 15.5228 4.47715 20 10 20ZM10 17C13.866 17 17 13.866 17 10C17 6.13401 13.866 3 10 3C6.13401 3 3 6.13401 3 10C3 13.866 6.13401 17 10 17Z" fill="#1c327b"/></g><g transform="translate(452.1,162.1) scale(1.512) rotate(0)"><rect width="2" height="20" fill="#1e2b45"/><rect x="4" width="2" height="20" fill="#1e2b45"/><rect x="8" width="2" height="20" fill="#1e2b45"/><rect x="12" width="2" height="20" fill="#1e2b45"/><rect x="16" width="2" height="20" fill="#1e2b45"/></g><g transform="translate(484.32,162.1) scale(1.512) rotate(0)"><rect width="20" height="2" fill="#193dd2"/><rect y="4" width="20" height="2" fill="#193dd2"/><rect y="8" width="20" height="2" fill="#193dd2"/><rect y="12" width="20" height="2" fill="#193dd2"/><rect y="16" width="20" height="2" fill="#193dd2"/></g><g transform="translate(516.81,162.37) scale(1.4855) rotate(0)"><path fill-rule="evenodd" clip-rule="evenodd" d="M10 20C15.5228 20 20 15.5228 20 10C20 4.47715 15.5228 0 10 0C4.47715 0 0 4.47715 0 10C0 15.5228 4.47715 20 10 20ZM10 17C13.866 17 17 13.866 17 10C17 6.13401 13.866 3 10 3C6.13401 3 3 6.13401 3 10C3 13.866 6.13401 17 10 17Z" fill="#183eda"/></g><g transform="translate(550.09,163.42) scale(1.3800000000000001) rotate(0)"><rect width="20" height="2" fill="#1a39b5"/><rect y="4" width="20" height="2" fill="#1a39b5"/><rect y="8" width="20" height="2" fill="#1a39b5"/><rect y="12" width="20" height="2" fill="#1a39b5"/><rect y="16" width="20" height="2" fill="#1a39b5"/></g><g transform="translate(583.37,164.48) scale(1.274) rotate(0)"><rect width="20" height="2" fill="#1a38aa"/><rect y="4" width="20" height="2" fill="#1a38aa"/><rect y="8" width="20" height="2" fill="#1a38aa"/><rect y="12" width="20" height="2" fill="#1a38aa"/><rect y="16" width="20" height="2" fill="#1a38aa"/></g><g transform="translate(649.93,166.6) scale(1.0625) rotate(0)"><rect width="20" height="2" fill="#1a3abb"/><rect y="4" width="20" height="2" fill="#1a3abb"/><rect y="8" width="20" height="2" fill="#1a3abb"/><rect y="12" width="20" height="2" fill="#1a3abb"/><rect y="16" width="20" height="2" fill="#1a3abb"/></g><g transform="translate(749.77,169.77) scale(0.745) rotate(0)"><rect width="2" height="20" fill="#1e2c4e"/><rect x="4" width="2" height="20" fill="#1e2c4e"/><rect x="8" width="2" height="20" fill="#1e2c4e"/><rect x="12" width="2" height="20" fill="#1e2c4e"/><rect x="16" width="2" height="20" fill="#1e2c4e"/></g><g transform="translate(106.12,202.79) scale(0.666) rotate(0)"><rect width="2" height="20" fill="#1c3388"/><rect x="4" width="2" height="20" fill="#1c3388"/><rect x="8" width="2" height="20" fill="#1c3388"/><rect x="12" width="2" height="20" fill="#1c3388"/><rect x="16" width="2" height="20" fill="#1c3388"/></g><g transform="translate(168.27,200.49) scale(0.8949999999999999) rotate(0)"><rect width="2" height="20" fill="#1e2d55"/><rect x="4" width="2" height="20" fill="#1e2d55"/><rect x="8" width="2" height="20" fill="#1e2d55"/><rect x="12" width="2" height="20" fill="#1e2d55"/><rect x="16" width="2" height="20" fill="#1e2d55"/></g><g transform="translate(230.42,198.2) scale(1.124) rotate(0)"><path fill-rule="evenodd" clip-rule="evenodd" d="M10 20C15.5228 20 20 15.5228 20 10C20 4.47715 15.5228 0 10 0C4.47715 0 0 4.47715 0 10C0 15.5228 4.47715 20 10 20ZM10 17C13.866 17 17 13.866 17 10C17 6.13401 13.866 3 10 3C6.13401 3 3 6.13401 3 10C3 13.866 6.13401 17 10 17Z" fill="#1b369a"/></g><g transform="translate(261.5,197.06) scale(1.239) rotate(0)"><rect width="20" height="2" fill="#1a38a9"/><rect y="4" width="20" height="2" fill="#1a38a9"/><rect y="8" width="20" height="2" fill="#1a38a9"/><rect y="12" width="20" height="2" fill="#1a38a9"/><rect y="16" width="20" height="2" fill="#1a38a9"/></g><g transform="translate(292.58,195.91) scale(1.3535) rotate(0)"><rect width="2" height="20" fill="#1e2c51"/><rect x="4" width="2" height="20" fill="#1e2c51"/><rect x="8" width="2" height="20" fill="#1e2c51"/><rect x="12" width="2" height="20" fill="#1e2c51"/><rect x="16" width="2" height="20" fill="#1e2c51"/></g><g transform="translate(323.65,194.77) scale(1.468) rotate(0)"><rect width="20" height="2" fill="#1c3177"/><rect y="4" width="20" height="2" fill="#1c3177"/><rect y="8" width="20" height="2" fill="#1c3177"/><rect y="12" width="20" height="2" fill="#1c3177"/><rect y="16" width="20" height="2" fill="#1c3177"/></g><g transform="translate(354.73,193.62) scale(1.5825) rotate(0)"><rect width="20" height="2" fill="#1b369d"/><rect y="4" width="20" height="2" fill="#1b369d"/><rect y="8" width="20" height="2" fill="#1b369d"/><rect y="12" width="20" height="2" fill="#1b369d"/><rect y="16" width="20" height="2" fill="#1b369d"/></g><g transform="translate(386.67,193.33) scale(1.611) rotate(0)"><rect width="20" height="2" fill="#1c3175"/><rect y="4" width="20" height="2" fill="#1c3175"/><rect y="8" width="20" height="2" fill="#1c3175"/><rect y="12" width="20" height="2" fill="#1c3175"/><rect y="16" width="20" height="2" fill="#1c3175"/></g><g transform="translate(418.89,193.33) scale(1.611) rotate(0)"><rect width="20" height="2" fill="#1d306a"/><rect y="4" width="20" height="2" fill="#1d306a"/><rect y="8" width="20" height="2" fill="#1d306a"/><rect y="12" width="20" height="2" fill="#1d306a"/><rect y="16" width="20" height="2" fill="#1d306a"/></g><g transform="translate(451.11,193.33) scale(1.611) rotate(0)"><path fill-rule="evenodd" clip-rule="evenodd" d="M10 20C15.5228 20 20 15.5228 20 10C20 4.47715 15.5228 0 10 0C4.47715 0 0 4.47715 0 10C0 15.5228 4.47715 20 10 20ZM10 17C13.866 17 17 13.866 17 10C17 6.13401 13.866 3 10 3C6.13401 3 3 6.13401 3 10C3 13.866 6.13401 17 10 17Z" fill="#1c348a"/></g><g transform="translate(483.33,193.33) scale(1.611) rotate(0)"><path fill-rule="evenodd" clip-rule="evenodd" d="M10 20C15.5228 20 20 15.5228 20 10C20 4.47715 15.5228 0 10 0C4.47715 0 0 4.47715 0 10C0 15.5228 4.47715 20 10 20ZM10 17C13.866 17 17 13.866 17 10C17 6.13401 13.866 3 10 3C6.13401 3 3 6.13401 3 10C3 13.866 6.13401 17 10 17Z" fill="#1d2f67"/></g><g transform="translate(515.84,193.62) scale(1.5825) rotate(0)"><path fill-rule="evenodd" clip-rule="evenodd" d="M10 20C15.5228 20 20 15.5228 20 10C20 4.47715 15.5228 0 10 0C4.47715 0 0 4.47715 0 10C0 15.5228 4.47715 20 10 20ZM10 17C13.866 17 17 13.866 17 10C17 6.13401 13.866 3 10 3C6.13401 3 3 6.13401 3 10C3 13.866 6.13401 17 10 17Z" fill="#1c327b"/></g><g transform="translate(549.21,194.77) scale(1.468) rotate(0)"><path fill-rule="evenodd" clip-rule="evenodd" d="M10 20C15.5228 20 20 15.5228 20 10C20 4.47715 15.5228 0 10 0C4.47715 0 0 4.47715 0 10C0 15.5228 4.47715 20 10 20ZM10 17C13.866 17 17 13.866 17 10C17 6.13401 13.866 3 10 3C6.13401 3 3 6.13401 3 10C3 13.866 6.13401 17 10 17Z" fill="#1b3590"/></g><g transform="translate(582.58,195.91) scale(1.3535) rotate(0)"><rect width="20" height="2" fill="#193dce"/><rect y="4" width="20" height="2" fill="#193dce"/><rect y="8" width="20" height="2" fill="#193dce"/><rect y="12" width="20" height="2" fill="#193dce"/><rect y="16" width="20" height="2" fill="#193dce"/></g><g transform="translate(615.95,197.06) scale(1.239) rotate(0)"><path fill-rule="evenodd" clip-rule="evenodd" d="M10 20C15.5228 20 20 15.5228 20 10C20 4.47715 15.5228 0 10 0C4.47715 0 0 4.47715 0 10C0 15.5228 4.47715 20 10 20ZM10 17C13.866 17 17 13.866 17 10C17 6.13401 13.866 3 10 3C6.13401 3 3 6.13401 3 10C3 13.866 6.13401 17 10 17Z" fill="#1c3383"/></g><g transform="translate(649.31,198.2) scale(1.124) rotate(0)"><path fill-rule="evenodd" clip-rule="evenodd" d="M10 20C15.5228 20 20 15.5228 20 10C20 4.47715 15.5228 0 10 0C4.47715 0 0 4.47715 0 10C0 15.5228 4.47715 20 10 20ZM10 17C13.866 17 17 13.866 17 10C17 6.13401 13.866 3 10 3C6.13401 3 3 6.13401 3 10C3 13.866 6.13401 17 10 17Z" fill="#1b369c"/></g><g transform="translate(716.05,200.49) scale(0.8949999999999999) rotate(0)"><path fill-rule="evenodd" clip-rule="evenodd" d="M10 20C15.5228 20 20 15.5228 20 10C20 4.47715 15.5228 0 10 0C4.47715 0 0 4.47715 0 10C0 15.5228 4.47715 20 10 20ZM10 17C13.866 17 17 13.866 17 10C17 6.13401 13.866 3 10 3C6.13401 3 3 6.13401 3 10C3 13.866 6.13401 17 10 17Z" fill="#1e2b47"/></g><g transform="translate(749.42,201.64) scale(0.7805) rotate(0)"><path fill-rule="evenodd" clip-rule="evenodd" d="M10 20C15.5228 20 20 15.5228 20 10C20 4.47715 15.5228 0 10 0C4.47715 0 0 4.47715 0 10C0 15.5228 4.47715 20 10 20ZM10 17C13.866 17 17 13.866 17 10C17 6.13401 13.866 3 10 3C6.13401 3 3 6.13401 3 10C3 13.866 6.13401 17 10 17Z" fill="#1a39b2"/></g><g transform="translate(199.35,231.57) scale(1.0095) rotate(0)"><rect width="20" height="2" fill="#183fdd"/><rect y="4" width="20" height="2" fill="#183fdd"/><rect y="8" width="20" height="2" fill="#183fdd"/><rect y="12" width="20" height="2" fill="#183fdd"/><rect y="16" width="20" height="2" fill="#183fdd"/></g><g transform="translate(261.5,229.28) scale(1.239) rotate(0)"><rect width="2" height="20" fill="#1e2c4f"/><rect x="4" width="2" height="20" fill="#1e2c4f"/><rect x="8" width="2" height="20" fill="#1e2c4f"/><rect x="12" width="2" height="20" fill="#1e2c4f"/><rect x="16" width="2" height="20" fill="#1e2c4f"/></g><g transform="translate(292.58,228.13) scale(1.3535) rotate(0)"><rect width="20" height="2" fill="#183ed9"/><rect y="4" width="20" height="2" fill="#183ed9"/><rect y="8" width="20" height="2" fill="#183ed9"/><rect y="12" width="20" height="2" fill="#183ed9"/><rect y="16" width="20" height="2" fill="#183ed9"/></g><g transform="translate(323.65,226.99) scale(1.468) rotate(0)"><rect width="20" height="2" fill="#1b3597"/><rect y="4" width="20" height="2" fill="#1b3597"/><rect y="8" width="20" height="2" fill="#1b3597"/><rect y="12" width="20" height="2" fill="#1b3597"/><rect y="16" width="20" height="2" fill="#1b3597"/></g><g transform="translate(354.73,225.84) scale(1.5825) rotate(0)"><rect width="20" height="2" fill="#1f293a"/><rect y="4" width="20" height="2" fill="#1f293a"/><rect y="8" width="20" height="2" fill="#1f293a"/><rect y="12" width="20" height="2" fill="#1f293a"/><rect y="16" width="20" height="2" fill="#1f293a"/></g><g transform="translate(386.67,225.56) scale(1.611) rotate(0)"><rect width="20" height="2" fill="#1a39b6"/><rect y="4" width="20" height="2" fill="#1a39b6"/><rect y="8" width="20" height="2" fill="#1a39b6"/><rect y="12" width="20" height="2" fill="#1a39b6"/><rect y="16" width="20" height="2" fill="#1a39b6"/></g><g transform="translate(418.89,225.56) scale(1.611) rotate(0)"><rect width="20" height="2" fill="#1e2d53"/><rect y="4" width="20" height="2" fill="#1e2d53"/><rect y="8" width="20" height="2" fill="#1e2d53"/><rect y="12" width="20" height="2" fill="#1e2d53"/><rect y="16" width="20" height="2" fill="#1e2d53"/></g><g transform="translate(451.11,225.56) scale(1.611) rotate(0)"><path fill-rule="evenodd" clip-rule="evenodd" d="M10 20C15.5228 20 20 15.5228 20 10C20 4.47715 15.5228 0 10 0C4.47715 0 0 4.47715 0 10C0 15.5228 4.47715 20 10 20ZM10 17C13.866 17 17 13.866 17 10C17 6.13401 13.866 3 10 3C6.13401 3 3 6.13401 3 10C3 13.866 6.13401 17 10 17Z" fill="#183edd"/></g><g transform="translate(483.33,225.56) scale(1.611) rotate(0)"><rect width="20" height="2" fill="#1c3388"/><rect y="4" width="20" height="2" fill="#1c3388"/><rect y="8" width="20" height="2" fill="#1c3388"/><rect y="12" width="20" height="2" fill="#1c3388"/><rect y="16" width="20" height="2" fill="#1c3388"/></g><g transform="translate(515.84,225.84) scale(1.5825) rotate(0)"><rect width="20" height="2" fill="#1b3592"/><rect y="4" width="20" height="2" fill="#1b3592"/><rect y="8" width="20" height="2" fill="#1b3592"/><rect y="12" width="20" height="2" fill="#1b3592"/><rect y="16" width="20" height="2" fill="#1b3592"/></g><g transform="translate(549.21,226.99) scale(1.468) rotate(0)"><rect width="20" height="2" fill="#1e2d5a"/><rect y="4" width="20" height="2" fill="#1e2d5a"/><rect y="8" width="20" height="2" fill="#1e2d5a"/><rect y="12" width="20" height="2" fill="#1e2d5a"/><rect y="16" width="20" height="2" fill="#1e2d5a"/></g><g transform="translate(582.58,228.13) scale(1.3535) rotate(0)"><rect width="20" height="2" fill="#1e2d58"/><rect y="4" width="20" height="2" fill="#1e2d58"/><rect y="8" width="20" height="2" fill="#1e2d58"/><rect y="12" width="20" height="2" fill="#1e2d58"/><rect y="16" width="20" height="2" fill="#1e2d58"/></g><g transform="translate(649.31,230.42) scale(1.124) rotate(0)"><rect width="2" height="20" fill="#193ccb"/><rect x="4" width="2" height="20" fill="#193ccb"/><rect x="8" width="2" height="20" fill="#193ccb"/><rect x="12" width="2" height="20" fill="#193ccb"/><rect x="16" width="2" height="20" fill="#193ccb"/></g><g transform="translate(716.05,232.72) scale(0.8949999999999999) rotate(0)"><rect width="2" height="20" fill="#1d2f62"/><rect x="4" width="2" height="20" fill="#1d2f62"/><rect x="8" width="2" height="20" fill="#1d2f62"/><rect x="12" width="2" height="20" fill="#1d2f62"/><rect x="16" width="2" height="20" fill="#1d2f62"/></g><g transform="translate(168.71,265.38) scale(0.851) rotate(0)"><path fill-rule="evenodd" clip-rule="evenodd" d="M10 20C15.5228 20 20 15.5228 20 10C20 4.47715 15.5228 0 10 0C4.47715 0 0 4.47715 0 10C0 15.5228 4.47715 20 10 20ZM10 17C13.866 17 17 13.866 17 10C17 6.13401 13.866 3 10 3C6.13401 3 3 6.13401 3 10C3 13.866 6.13401 17 10 17Z" fill="#1e2e5b"/></g><g transform="translate(199.88,264.32) scale(0.9570000000000001) rotate(0)"><rect width="2" height="20" fill="#1e2c4c"/><rect x="4" width="2" height="20" fill="#1e2c4c"/><rect x="8" width="2" height="20" fill="#1e2c4c"/><rect x="12" width="2" height="20" fill="#1e2c4c"/><rect x="16" width="2" height="20" fill="#1e2c4c"/></g><g transform="translate(231.04,263.26) scale(1.0625) rotate(0)"><path fill-rule="evenodd" clip-rule="evenodd" d="M10 20C15.5228 20 20 15.5228 20 10C20 4.47715 15.5228 0 10 0C4.47715 0 0 4.47715 0 10C0 15.5228 4.47715 20 10 20ZM10 17C13.866 17 17 13.866 17 10C17 6.13401 13.866 3 10 3C6.13401 3 3 6.13401 3 10C3 13.866 6.13401 17 10 17Z" fill="#1d3172"/></g><g transform="translate(262.21,262.21) scale(1.1685) rotate(0)"><rect width="20" height="2" fill="#1a38ae"/><rect y="4" width="20" height="2" fill="#1a38ae"/><rect y="8" width="20" height="2" fill="#1a38ae"/><rect y="12" width="20" height="2" fill="#1a38ae"/><rect y="16" width="20" height="2" fill="#1a38ae"/></g><g transform="translate(324.54,260.09) scale(1.3800000000000001) rotate(0)"><rect width="2" height="20" fill="#1a39b5"/><rect x="4" width="2" height="20" fill="#1a39b5"/><rect x="8" width="2" height="20" fill="#1a39b5"/><rect x="12" width="2" height="20" fill="#1a39b5"/><rect x="16" width="2" height="20" fill="#1a39b5"/></g><g transform="translate(355.7,259.03) scale(1.4855) rotate(0)"><rect width="20" height="2" fill="#193abe"/><rect y="4" width="20" height="2" fill="#193abe"/><rect y="8" width="20" height="2" fill="#193abe"/><rect y="12" width="20" height="2" fill="#193abe"/><rect y="16" width="20" height="2" fill="#193abe"/></g><g transform="translate(387.66,258.77) scale(1.512) rotate(0)"><rect width="20" height="2" fill="#1e2c4d"/><rect y="4" width="20" height="2" fill="#1e2c4d"/><rect y="8" width="20" height="2" fill="#1e2c4d"/><rect y="12" width="20" height="2" fill="#1e2c4d"/><rect y="16" width="20" height="2" fill="#1e2c4d"/></g><g transform="translate(452.1,258.77) scale(1.512) rotate(0)"><path fill-rule="evenodd" clip-rule="evenodd" d="M10 20C15.5228 20 20 15.5228 20 10C20 4.47715 15.5228 0 10 0C4.47715 0 0 4.47715 0 10C0 15.5228 4.47715 20 10 20ZM10 17C13.866 17 17 13.866 17 10C17 6.13401 13.866 3 10 3C6.13401 3 3 6.13401 3 10C3 13.866 6.13401 17 10 17Z" fill="#183ed5"/></g><g transform="translate(484.32,258.77) scale(1.512) rotate(0)"><rect width="20" height="2" fill="#1b3594"/><rect y="4" width="20" height="2" fill="#1b3594"/><rect y="8" width="20" height="2" fill="#1b3594"/><rect y="12" width="20" height="2" fill="#1b3594"/><rect y="16" width="20" height="2" fill="#1b3594"/></g><g transform="translate(516.81,259.03) scale(1.4855) rotate(0)"><path fill-rule="evenodd" clip-rule="evenodd" d="M10 20C15.5228 20 20 15.5228 20 10C20 4.47715 15.5228 0 10 0C4.47715 0 0 4.47715 0 10C0 15.5228 4.47715 20 10 20ZM10 17C13.866 17 17 13.866 17 10C17 6.13401 13.866 3 10 3C6.13401 3 3 6.13401 3 10C3 13.866 6.13401 17 10 17Z" fill="#1e2d55"/></g><g transform="translate(550.09,260.09) scale(1.3800000000000001) rotate(0)"><rect width="20" height="2" fill="#1e2c4d"/><rect y="4" width="20" height="2" fill="#1e2c4d"/><rect y="8" width="20" height="2" fill="#1e2c4d"/><rect y="12" width="20" height="2" fill="#1e2c4d"/><rect y="16" width="20" height="2" fill="#1e2c4d"/></g><g transform="translate(583.37,261.15) scale(1.274) rotate(0)"><rect width="2" height="20" fill="#1e2d52"/><rect x="4" width="2" height="20" fill="#1e2d52"/><rect x="8" width="2" height="20" fill="#1e2d52"/><rect x="12" width="2" height="20" fill="#1e2d52"/><rect x="16" width="2" height="20" fill="#1e2d52"/></g><g transform="translate(716.49,265.38) scale(0.851) rotate(0)"><path fill-rule="evenodd" clip-rule="evenodd" d="M10 20C15.5228 20 20 15.5228 20 10C20 4.47715 15.5228 0 10 0C4.47715 0 0 4.47715 0 10C0 15.5228 4.47715 20 10 20ZM10 17C13.866 17 17 13.866 17 10C17 6.13401 13.866 3 10 3C6.13401 3 3 6.13401 3 10C3 13.866 6.13401 17 10 17Z" fill="#1b3594"/></g><g transform="translate(849.61,269.61) scale(0.42800000000000005) rotate(0)"><path fill-rule="evenodd" clip-rule="evenodd" d="M10 20C15.5228 20 20 15.5228 20 10C20 4.47715 15.5228 0 10 0C4.47715 0 0 4.47715 0 10C0 15.5228 4.47715 20 10 20ZM10 17C13.866 17 17 13.866 17 10C17 6.13401 13.866 3 10 3C6.13401 3 3 6.13401 3 10C3 13.866 6.13401 17 10 17Z" fill="#1e2d58"/></g><g transform="translate(201.15,297.81) scale(0.8300000000000001) rotate(0)"><path fill-rule="evenodd" clip-rule="evenodd" d="M10 20C15.5228 20 20 15.5228 20 10C20 4.47715 15.5228 0 10 0C4.47715 0 0 4.47715 0 10C0 15.5228 4.47715 20 10 20ZM10 17C13.866 17 17 13.866 17 10C17 6.13401 13.866 3 10 3C6.13401 3 3 6.13401 3 10C3 13.866 6.13401 17 10 17Z" fill="#1c3382"/></g><g transform="translate(232.52,296.97) scale(0.9145) rotate(0)"><path fill-rule="evenodd" clip-rule="evenodd" d="M10 20C15.5228 20 20 15.5228 20 10C20 4.47715 15.5228 0 10 0C4.47715 0 0 4.47715 0 10C0 15.5228 4.47715 20 10 20ZM10 17C13.866 17 17 13.866 17 10C17 6.13401 13.866 3 10 3C6.13401 3 3 6.13401 3 10C3 13.866 6.13401 17 10 17Z" fill="#1c3176"/></g><g transform="translate(295.27,295.27) scale(1.0835000000000001) rotate(0)"><rect width="20" height="2" fill="#1a3abc"/><rect y="4" width="20" height="2" fill="#1a3abc"/><rect y="8" width="20" height="2" fill="#1a3abc"/><rect y="12" width="20" height="2" fill="#1a3abc"/><rect y="16" width="20" height="2" fill="#1a3abc"/></g><g transform="translate(326.65,294.43) scale(1.1685) rotate(0)"><rect width="20" height="2" fill="#1d3171"/><rect y="4" width="20" height="2" fill="#1d3171"/><rect y="8" width="20" height="2" fill="#1d3171"/><rect y="12" width="20" height="2" fill="#1d3171"/><rect y="16" width="20" height="2" fill="#1d3171"/></g><g transform="translate(358.03,293.58) scale(1.253) rotate(0)"><rect width="2" height="20" fill="#1d2f66"/><rect x="4" width="2" height="20" fill="#1d2f66"/><rect x="8" width="2" height="20" fill="#1d2f66"/><rect x="12" width="2" height="20" fill="#1d2f66"/><rect x="16" width="2" height="20" fill="#1d2f66"/></g><g transform="translate(390.04,293.37) scale(1.274) rotate(0)"><path fill-rule="evenodd" clip-rule="evenodd" d="M10 20C15.5228 20 20 15.5228 20 10C20 4.47715 15.5228 0 10 0C4.47715 0 0 4.47715 0 10C0 15.5228 4.47715 20 10 20ZM10 17C13.866 17 17 13.866 17 10C17 6.13401 13.866 3 10 3C6.13401 3 3 6.13401 3 10C3 13.866 6.13401 17 10 17Z" fill="#193bc1"/></g><g transform="translate(422.26,293.37) scale(1.274) rotate(0)"><rect width="20" height="2" fill="#1b369b"/><rect y="4" width="20" height="2" fill="#1b369b"/><rect y="8" width="20" height="2" fill="#1b369b"/><rect y="12" width="20" height="2" fill="#1b369b"/><rect y="16" width="20" height="2" fill="#1b369b"/></g><g transform="translate(486.7,293.37) scale(1.274) rotate(0)"><path fill-rule="evenodd" clip-rule="evenodd" d="M10 20C15.5228 20 20 15.5228 20 10C20 4.47715 15.5228 0 10 0C4.47715 0 0 4.47715 0 10C0 15.5228 4.47715 20 10 20ZM10 17C13.866 17 17 13.866 17 10C17 6.13401 13.866 3 10 3C6.13401 3 3 6.13401 3 10C3 13.866 6.13401 17 10 17Z" fill="#1a37a7"/></g><g transform="translate(519.14,293.58) scale(1.253) rotate(0)"><rect width="20" height="2" fill="#1c327e"/><rect y="4" width="20" height="2" fill="#1c327e"/><rect y="8" width="20" height="2" fill="#1c327e"/><rect y="12" width="20" height="2" fill="#1c327e"/><rect y="16" width="20" height="2" fill="#1c327e"/></g><g transform="translate(552.21,294.43) scale(1.1685) rotate(0)"><rect width="20" height="2" fill="#193bc4"/><rect y="4" width="20" height="2" fill="#193bc4"/><rect y="8" width="20" height="2" fill="#193bc4"/><rect y="12" width="20" height="2" fill="#193bc4"/><rect y="16" width="20" height="2" fill="#193bc4"/></g><g transform="translate(585.27,295.27) scale(1.0835000000000001) rotate(0)"><rect width="2" height="20" fill="#1c3383"/><rect x="4" width="2" height="20" fill="#1c3383"/><rect x="8" width="2" height="20" fill="#1c3383"/><rect x="12" width="2" height="20" fill="#1c3383"/><rect x="16" width="2" height="20" fill="#1c3383"/></g><g transform="translate(651.41,296.97) scale(0.9145) rotate(0)"><rect width="2" height="20" fill="#183edb"/><rect x="4" width="2" height="20" fill="#183edb"/><rect x="8" width="2" height="20" fill="#183edb"/><rect x="12" width="2" height="20" fill="#183edb"/><rect x="16" width="2" height="20" fill="#183edb"/></g><g transform="translate(684.48,297.81) scale(0.8300000000000001) rotate(0)"><rect width="2" height="20" fill="#1c3386"/><rect x="4" width="2" height="20" fill="#1c3386"/><rect x="8" width="2" height="20" fill="#1c3386"/><rect x="12" width="2" height="20" fill="#1c3386"/><rect x="16" width="2" height="20" fill="#1c3386"/></g><g transform="translate(816.75,301.2) scale(0.4915) rotate(0)"><path fill-rule="evenodd" clip-rule="evenodd" d="M10 20C15.5228 20 20 15.5228 20 10C20 4.47715 15.5228 0 10 0C4.47715 0 0 4.47715 0 10C0 15.5228 4.47715 20 10 20ZM10 17C13.866 17 17 13.866 17 10C17 6.13401 13.866 3 10 3C6.13401 3 3 6.13401 3 10C3 13.866 6.13401 17 10 17Z" fill="#193bc5"/></g><g transform="translate(76.06,333.84) scale(0.449) rotate(0)"><rect width="20" height="2" fill="#1c348b"/><rect y="4" width="20" height="2" fill="#1c348b"/><rect y="8" width="20" height="2" fill="#1c348b"/><rect y="12" width="20" height="2" fill="#1c348b"/><rect y="16" width="20" height="2" fill="#1c348b"/></g><g transform="translate(107.65,333.21) scale(0.5125) rotate(0)"><rect width="2" height="20" fill="#1c3388"/><rect x="4" width="2" height="20" fill="#1c3388"/><rect x="8" width="2" height="20" fill="#1c3388"/><rect x="12" width="2" height="20" fill="#1c3388"/><rect x="16" width="2" height="20" fill="#1c3388"/></g><g transform="translate(297.18,329.4) scale(0.8935000000000001) rotate(0)"><path fill-rule="evenodd" clip-rule="evenodd" d="M10 20C15.5228 20 20 15.5228 20 10C20 4.47715 15.5228 0 10 0C4.47715 0 0 4.47715 0 10C0 15.5228 4.47715 20 10 20ZM10 17C13.866 17 17 13.866 17 10C17 6.13401 13.866 3 10 3C6.13401 3 3 6.13401 3 10C3 13.866 6.13401 17 10 17Z" fill="#1b3591"/></g><g transform="translate(328.77,328.77) scale(0.9570000000000001) rotate(0)"><rect width="2" height="20" fill="#1f2a3c"/><rect x="4" width="2" height="20" fill="#1f2a3c"/><rect x="8" width="2" height="20" fill="#1f2a3c"/><rect x="12" width="2" height="20" fill="#1f2a3c"/><rect x="16" width="2" height="20" fill="#1f2a3c"/></g><g transform="translate(360.35,328.13) scale(1.02) rotate(0)"><rect width="2" height="20" fill="#193dd2"/><rect x="4" width="2" height="20" fill="#193dd2"/><rect x="8" width="2" height="20" fill="#193dd2"/><rect x="12" width="2" height="20" fill="#193dd2"/><rect x="16" width="2" height="20" fill="#193dd2"/></g><g transform="translate(424.64,327.97) scale(1.036) rotate(0)"><rect width="20" height="2" fill="#193ccb"/><rect y="4" width="20" height="2" fill="#193ccb"/><rect y="8" width="20" height="2" fill="#193ccb"/><rect y="12" width="20" height="2" fill="#193ccb"/><rect y="16" width="20" height="2" fill="#193ccb"/></g><g transform="translate(456.86,327.97) scale(1.036) rotate(0)"><path fill-rule="evenodd" clip-rule="evenodd" d="M10 20C15.5228 20 20 15.5228 20 10C20 4.47715 15.5228 0 10 0C4.47715 0 0 4.47715 0 10C0 15.5228 4.47715 20 10 20ZM10 17C13.866 17 17 13.866 17 10C17 6.13401 13.866 3 10 3C6.13401 3 3 6.13401 3 10C3 13.866 6.13401 17 10 17Z" fill="#1c3174"/></g><g transform="translate(521.46,328.13) scale(1.02) rotate(0)"><rect width="20" height="2" fill="#1c3383"/><rect y="4" width="20" height="2" fill="#1c3383"/><rect y="8" width="20" height="2" fill="#1c3383"/><rect y="12" width="20" height="2" fill="#1c3383"/><rect y="16" width="20" height="2" fill="#1c3383"/></g><g transform="translate(587.18,329.4) scale(0.8935000000000001) rotate(0)"><path fill-rule="evenodd" clip-rule="evenodd" d="M10 20C15.5228 20 20 15.5228 20 10C20 4.47715 15.5228 0 10 0C4.47715 0 0 4.47715 0 10C0 15.5228 4.47715 20 10 20ZM10 17C13.866 17 17 13.866 17 10C17 6.13401 13.866 3 10 3C6.13401 3 3 6.13401 3 10C3 13.866 6.13401 17 10 17Z" fill="#1f2b43"/></g><g transform="translate(652.89,330.67) scale(0.7665) rotate(0)"><path fill-rule="evenodd" clip-rule="evenodd" d="M10 20C15.5228 20 20 15.5228 20 10C20 4.47715 15.5228 0 10 0C4.47715 0 0 4.47715 0 10C0 15.5228 4.47715 20 10 20ZM10 17C13.866 17 17 13.866 17 10C17 6.13401 13.866 3 10 3C6.13401 3 3 6.13401 3 10C3 13.866 6.13401 17 10 17Z" fill="#1a38ac"/></g><g transform="translate(685.75,331.3) scale(0.7030000000000001) rotate(0)"><rect width="20" height="2" fill="#1c3177"/><rect y="4" width="20" height="2" fill="#1c3177"/><rect y="8" width="20" height="2" fill="#1c3177"/><rect y="12" width="20" height="2" fill="#1c3177"/><rect y="16" width="20" height="2" fill="#1c3177"/></g><g transform="translate(751.46,332.57) scale(0.576) rotate(0)"><path fill-rule="evenodd" clip-rule="evenodd" d="M10 20C15.5228 20 20 15.5228 20 10C20 4.47715 15.5228 0 10 0C4.47715 0 0 4.47715 0 10C0 15.5228 4.47715 20 10 20ZM10 17C13.866 17 17 13.866 17 10C17 6.13401 13.866 3 10 3C6.13401 3 3 6.13401 3 10C3 13.866 6.13401 17 10 17Z" fill="#1a39b6"/></g><g transform="translate(330.88,363.1) scale(0.745) rotate(0)"><rect width="2" height="20" fill="#1e2b47"/><rect x="4" width="2" height="20" fill="#1e2b47"/><rect x="8" width="2" height="20" fill="#1e2b47"/><rect x="12" width="2" height="20" fill="#1e2b47"/><rect x="16" width="2" height="20" fill="#1e2b47"/></g><g transform="translate(362.68,362.68) scale(0.7875) rotate(0)"><path fill-rule="evenodd" clip-rule="evenodd" d="M10 20C15.5228 20 20 15.5228 20 10C20 4.47715 15.5228 0 10 0C4.47715 0 0 4.47715 0 10C0 15.5228 4.47715 20 10 20ZM10 17C13.866 17 17 13.866 17 10C17 6.13401 13.866 3 10 3C6.13401 3 3 6.13401 3 10C3 13.866 6.13401 17 10 17Z" fill="#1c3175"/></g><g transform="translate(427.02,362.57) scale(0.798) rotate(0)"><path fill-rule="evenodd" clip-rule="evenodd" d="M10 20C15.5228 20 20 15.5228 20 10C20 4.47715 15.5228 0 10 0C4.47715 0 0 4.47715 0 10C0 15.5228 4.47715 20 10 20ZM10 17C13.866 17 17 13.866 17 10C17 6.13401 13.866 3 10 3C6.13401 3 3 6.13401 3 10C3 13.866 6.13401 17 10 17Z" fill="#1c348a"/></g><g transform="translate(459.24,362.57) scale(0.798) rotate(0)"><rect width="2" height="20" fill="#1d306d"/><rect x="4" width="2" height="20" fill="#1d306d"/><rect x="8" width="2" height="20" fill="#1d306d"/><rect x="12" width="2" height="20" fill="#1d306d"/><rect x="16" width="2" height="20" fill="#1d306d"/></g><g transform="translate(523.79,362.68) scale(0.7875) rotate(0)"><path fill-rule="evenodd" clip-rule="evenodd" d="M10 20C15.5228 20 20 15.5228 20 10C20 4.47715 15.5228 0 10 0C4.47715 0 0 4.47715 0 10C0 15.5228 4.47715 20 10 20ZM10 17C13.866 17 17 13.866 17 10C17 6.13401 13.866 3 10 3C6.13401 3 3 6.13401 3 10C3 13.866 6.13401 17 10 17Z" fill="#183ed7"/></g><g transform="translate(556.44,363.1) scale(0.745) rotate(0)"><rect width="2" height="20" fill="#1a39b5"/><rect x="4" width="2" height="20" fill="#1a39b5"/><rect x="8" width="2" height="20" fill="#1a39b5"/><rect x="12" width="2" height="20" fill="#1a39b5"/><rect x="16" width="2" height="20" fill="#1a39b5"/></g><g transform="translate(589.08,363.53) scale(0.7030000000000001) rotate(0)"><path fill-rule="evenodd" clip-rule="evenodd" d="M10 20C15.5228 20 20 15.5228 20 10C20 4.47715 15.5228 0 10 0C4.47715 0 0 4.47715 0 10C0 15.5228 4.47715 20 10 20ZM10 17C13.866 17 17 13.866 17 10C17 6.13401 13.866 3 10 3C6.13401 3 3 6.13401 3 10C3 13.866 6.13401 17 10 17Z" fill="#193dd1"/></g><g transform="translate(236.96,398.07) scale(0.47050000000000003) rotate(0)"><rect width="2" height="20" fill="#183edb"/><rect x="4" width="2" height="20" fill="#183edb"/><rect x="8" width="2" height="20" fill="#183edb"/><rect x="12" width="2" height="20" fill="#183edb"/><rect x="16" width="2" height="20" fill="#183edb"/></g><g transform="translate(623.42,397.86) scale(0.4915) rotate(0)"><path fill-rule="evenodd" clip-rule="evenodd" d="M10 20C15.5228 20 20 15.5228 20 10C20 4.47715 15.5228 0 10 0C4.47715 0 0 4.47715 0 10C0 15.5228 4.47715 20 10 20ZM10 17C13.866 17 17 13.866 17 10C17 6.13401 13.866 3 10 3C6.13401 3 3 6.13401 3 10C3 13.866 6.13401 17 10 17Z" fill="#1a39b5"/></g></g></svg>